<mxfile host="app.diagrams.net" modified="2024-05-01T16:33:10.925Z" agent="Mozilla/5.0 (Windows NT 10.0; Win64; x64) AppleWebKit/537.36 (KHTML, like Gecko) Chrome/124.0.0.0 Safari/537.36" etag="zFuyMbXIS01HwqoD2_T1" version="24.3.1" type="device">
  <diagram name="Page-1" id="U4K2EVnBRlRW_GpABIXR">
    <mxGraphModel dx="1984" dy="1746" grid="1" gridSize="9" guides="1" tooltips="1" connect="1" arrows="1" fold="1" page="1" pageScale="1" pageWidth="850" pageHeight="1100" background="#fafafa" math="0" shadow="0">
      <root>
        <mxCell id="0" />
        <mxCell id="1" parent="0" />
        <mxCell id="Y06S6OtJI9VlS8_aOR3e-55" value="PRODUCT DETAILS" style="swimlane;fontStyle=0;childLayout=stackLayout;horizontal=1;startSize=30;horizontalStack=0;resizeParent=1;resizeParentMax=0;resizeLast=0;collapsible=1;marginBottom=0;whiteSpace=wrap;html=1;" vertex="1" parent="1">
          <mxGeometry x="162" y="-135" width="140" height="160" as="geometry" />
        </mxCell>
        <mxCell id="Y06S6OtJI9VlS8_aOR3e-56" value="ProductId-Int-Primary Key" style="text;strokeColor=none;fillColor=none;align=left;verticalAlign=middle;spacingLeft=4;spacingRight=4;overflow=hidden;points=[[0,0.5],[1,0.5]];portConstraint=eastwest;rotatable=0;whiteSpace=wrap;html=1;" vertex="1" parent="Y06S6OtJI9VlS8_aOR3e-55">
          <mxGeometry y="30" width="140" height="40" as="geometry" />
        </mxCell>
        <mxCell id="Y06S6OtJI9VlS8_aOR3e-57" value="ProductName-Varchar(50)" style="text;strokeColor=none;fillColor=none;align=left;verticalAlign=middle;spacingLeft=4;spacingRight=4;overflow=hidden;points=[[0,0.5],[1,0.5]];portConstraint=eastwest;rotatable=0;whiteSpace=wrap;html=1;" vertex="1" parent="Y06S6OtJI9VlS8_aOR3e-55">
          <mxGeometry y="70" width="140" height="30" as="geometry" />
        </mxCell>
        <mxCell id="Y06S6OtJI9VlS8_aOR3e-58" value="ProductDescription-Varchar(100)" style="text;strokeColor=none;fillColor=none;align=left;verticalAlign=middle;spacingLeft=4;spacingRight=4;overflow=hidden;points=[[0,0.5],[1,0.5]];portConstraint=eastwest;rotatable=0;whiteSpace=wrap;html=1;" vertex="1" parent="Y06S6OtJI9VlS8_aOR3e-55">
          <mxGeometry y="100" width="140" height="30" as="geometry" />
        </mxCell>
        <mxCell id="Y06S6OtJI9VlS8_aOR3e-89" value="ProductPrice-Decimal" style="text;strokeColor=none;fillColor=none;align=left;verticalAlign=middle;spacingLeft=4;spacingRight=4;overflow=hidden;points=[[0,0.5],[1,0.5]];portConstraint=eastwest;rotatable=0;whiteSpace=wrap;html=1;" vertex="1" parent="Y06S6OtJI9VlS8_aOR3e-55">
          <mxGeometry y="130" width="140" height="30" as="geometry" />
        </mxCell>
        <mxCell id="Y06S6OtJI9VlS8_aOR3e-60" value="SUPPLIER DETAILS" style="swimlane;fontStyle=0;childLayout=stackLayout;horizontal=1;startSize=30;horizontalStack=0;resizeParent=1;resizeParentMax=0;resizeLast=0;collapsible=1;marginBottom=0;whiteSpace=wrap;html=1;" vertex="1" parent="1">
          <mxGeometry x="630" y="-153" width="140" height="150" as="geometry" />
        </mxCell>
        <mxCell id="Y06S6OtJI9VlS8_aOR3e-61" value="SupplierId-Int-Primary Key" style="text;strokeColor=none;fillColor=none;align=left;verticalAlign=middle;spacingLeft=4;spacingRight=4;overflow=hidden;points=[[0,0.5],[1,0.5]];portConstraint=eastwest;rotatable=0;whiteSpace=wrap;html=1;" vertex="1" parent="Y06S6OtJI9VlS8_aOR3e-60">
          <mxGeometry y="30" width="140" height="30" as="geometry" />
        </mxCell>
        <mxCell id="Y06S6OtJI9VlS8_aOR3e-62" value="SupplierName-Varchar(20)" style="text;strokeColor=none;fillColor=none;align=left;verticalAlign=middle;spacingLeft=4;spacingRight=4;overflow=hidden;points=[[0,0.5],[1,0.5]];portConstraint=eastwest;rotatable=0;whiteSpace=wrap;html=1;" vertex="1" parent="Y06S6OtJI9VlS8_aOR3e-60">
          <mxGeometry y="60" width="140" height="30" as="geometry" />
        </mxCell>
        <mxCell id="Y06S6OtJI9VlS8_aOR3e-76" value="SupplierPhone-Varchar(10)" style="text;strokeColor=none;fillColor=none;align=left;verticalAlign=middle;spacingLeft=4;spacingRight=4;overflow=hidden;points=[[0,0.5],[1,0.5]];portConstraint=eastwest;rotatable=0;whiteSpace=wrap;html=1;" vertex="1" parent="Y06S6OtJI9VlS8_aOR3e-60">
          <mxGeometry y="90" width="140" height="30" as="geometry" />
        </mxCell>
        <mxCell id="Y06S6OtJI9VlS8_aOR3e-77" value="SupplierAddress-Varchar(50)" style="text;strokeColor=none;fillColor=none;align=left;verticalAlign=middle;spacingLeft=4;spacingRight=4;overflow=hidden;points=[[0,0.5],[1,0.5]];portConstraint=eastwest;rotatable=0;whiteSpace=wrap;html=1;" vertex="1" parent="Y06S6OtJI9VlS8_aOR3e-60">
          <mxGeometry y="120" width="140" height="30" as="geometry" />
        </mxCell>
        <mxCell id="Y06S6OtJI9VlS8_aOR3e-65" value="CUSTOMER DETAILS" style="swimlane;fontStyle=0;childLayout=stackLayout;horizontal=1;startSize=30;horizontalStack=0;resizeParent=1;resizeParentMax=0;resizeLast=0;collapsible=1;marginBottom=0;whiteSpace=wrap;html=1;" vertex="1" parent="1">
          <mxGeometry x="-18" y="279" width="140" height="150" as="geometry" />
        </mxCell>
        <mxCell id="Y06S6OtJI9VlS8_aOR3e-66" value="CustomerId-Int-Primary Key" style="text;strokeColor=none;fillColor=none;align=left;verticalAlign=middle;spacingLeft=4;spacingRight=4;overflow=hidden;points=[[0,0.5],[1,0.5]];portConstraint=eastwest;rotatable=0;whiteSpace=wrap;html=1;" vertex="1" parent="Y06S6OtJI9VlS8_aOR3e-65">
          <mxGeometry y="30" width="140" height="30" as="geometry" />
        </mxCell>
        <mxCell id="Y06S6OtJI9VlS8_aOR3e-67" value="CustomerName-Varchar(20)" style="text;strokeColor=none;fillColor=none;align=left;verticalAlign=middle;spacingLeft=4;spacingRight=4;overflow=hidden;points=[[0,0.5],[1,0.5]];portConstraint=eastwest;rotatable=0;whiteSpace=wrap;html=1;" vertex="1" parent="Y06S6OtJI9VlS8_aOR3e-65">
          <mxGeometry y="60" width="140" height="30" as="geometry" />
        </mxCell>
        <mxCell id="Y06S6OtJI9VlS8_aOR3e-75" value="CustomerAddress-Varchar(50)" style="text;strokeColor=none;fillColor=none;align=left;verticalAlign=middle;spacingLeft=4;spacingRight=4;overflow=hidden;points=[[0,0.5],[1,0.5]];portConstraint=eastwest;rotatable=0;whiteSpace=wrap;html=1;" vertex="1" parent="Y06S6OtJI9VlS8_aOR3e-65">
          <mxGeometry y="90" width="140" height="30" as="geometry" />
        </mxCell>
        <mxCell id="Y06S6OtJI9VlS8_aOR3e-74" value="CustomerPhone-Varchar(10)" style="text;strokeColor=none;fillColor=none;align=left;verticalAlign=middle;spacingLeft=4;spacingRight=4;overflow=hidden;points=[[0,0.5],[1,0.5]];portConstraint=eastwest;rotatable=0;whiteSpace=wrap;html=1;" vertex="1" parent="Y06S6OtJI9VlS8_aOR3e-65">
          <mxGeometry y="120" width="140" height="30" as="geometry" />
        </mxCell>
        <mxCell id="Y06S6OtJI9VlS8_aOR3e-78" value="STOCK DETAILS" style="swimlane;fontStyle=0;childLayout=stackLayout;horizontal=1;startSize=30;horizontalStack=0;resizeParent=1;resizeParentMax=0;resizeLast=0;collapsible=1;marginBottom=0;whiteSpace=wrap;html=1;" vertex="1" parent="1">
          <mxGeometry x="405" y="60" width="140" height="150" as="geometry" />
        </mxCell>
        <mxCell id="Y06S6OtJI9VlS8_aOR3e-84" value="ItemId-Int-Primary Key" style="text;strokeColor=none;fillColor=none;align=left;verticalAlign=middle;spacingLeft=4;spacingRight=4;overflow=hidden;points=[[0,0.5],[1,0.5]];portConstraint=eastwest;rotatable=0;whiteSpace=wrap;html=1;" vertex="1" parent="Y06S6OtJI9VlS8_aOR3e-78">
          <mxGeometry y="30" width="140" height="30" as="geometry" />
        </mxCell>
        <mxCell id="Y06S6OtJI9VlS8_aOR3e-79" value="ProductId-Int-Foreign Key" style="text;strokeColor=none;fillColor=none;align=left;verticalAlign=middle;spacingLeft=4;spacingRight=4;overflow=hidden;points=[[0,0.5],[1,0.5]];portConstraint=eastwest;rotatable=0;whiteSpace=wrap;html=1;" vertex="1" parent="Y06S6OtJI9VlS8_aOR3e-78">
          <mxGeometry y="60" width="140" height="30" as="geometry" />
        </mxCell>
        <mxCell id="Y06S6OtJI9VlS8_aOR3e-80" value="SupplierId-Int-Foreign Key" style="text;strokeColor=none;fillColor=none;align=left;verticalAlign=middle;spacingLeft=4;spacingRight=4;overflow=hidden;points=[[0,0.5],[1,0.5]];portConstraint=eastwest;rotatable=0;whiteSpace=wrap;html=1;" vertex="1" parent="Y06S6OtJI9VlS8_aOR3e-78">
          <mxGeometry y="90" width="140" height="30" as="geometry" />
        </mxCell>
        <mxCell id="Y06S6OtJI9VlS8_aOR3e-81" value="AvailableStock-int" style="text;strokeColor=none;fillColor=none;align=left;verticalAlign=middle;spacingLeft=4;spacingRight=4;overflow=hidden;points=[[0,0.5],[1,0.5]];portConstraint=eastwest;rotatable=0;whiteSpace=wrap;html=1;" vertex="1" parent="Y06S6OtJI9VlS8_aOR3e-78">
          <mxGeometry y="120" width="140" height="30" as="geometry" />
        </mxCell>
        <mxCell id="Y06S6OtJI9VlS8_aOR3e-82" style="edgeStyle=orthogonalEdgeStyle;rounded=0;orthogonalLoop=1;jettySize=auto;html=1;entryX=0;entryY=0.5;entryDx=0;entryDy=0;" edge="1" parent="1" source="Y06S6OtJI9VlS8_aOR3e-56" target="Y06S6OtJI9VlS8_aOR3e-79">
          <mxGeometry relative="1" as="geometry" />
        </mxCell>
        <mxCell id="Y06S6OtJI9VlS8_aOR3e-83" style="edgeStyle=orthogonalEdgeStyle;rounded=0;orthogonalLoop=1;jettySize=auto;html=1;entryX=1;entryY=0.5;entryDx=0;entryDy=0;" edge="1" parent="1" source="Y06S6OtJI9VlS8_aOR3e-61" target="Y06S6OtJI9VlS8_aOR3e-80">
          <mxGeometry relative="1" as="geometry" />
        </mxCell>
        <mxCell id="Y06S6OtJI9VlS8_aOR3e-85" value="PURCHASE DETAILS" style="swimlane;fontStyle=0;childLayout=stackLayout;horizontal=1;startSize=30;horizontalStack=0;resizeParent=1;resizeParentMax=0;resizeLast=0;collapsible=1;marginBottom=0;whiteSpace=wrap;html=1;" vertex="1" parent="1">
          <mxGeometry x="198" y="279" width="140" height="150" as="geometry" />
        </mxCell>
        <mxCell id="Y06S6OtJI9VlS8_aOR3e-86" value="PurchaseId-Int-Primary Key" style="text;strokeColor=none;fillColor=none;align=left;verticalAlign=middle;spacingLeft=4;spacingRight=4;overflow=hidden;points=[[0,0.5],[1,0.5]];portConstraint=eastwest;rotatable=0;whiteSpace=wrap;html=1;" vertex="1" parent="Y06S6OtJI9VlS8_aOR3e-85">
          <mxGeometry y="30" width="140" height="30" as="geometry" />
        </mxCell>
        <mxCell id="Y06S6OtJI9VlS8_aOR3e-87" value="CustomerId-int-Foreign Key" style="text;strokeColor=none;fillColor=none;align=left;verticalAlign=middle;spacingLeft=4;spacingRight=4;overflow=hidden;points=[[0,0.5],[1,0.5]];portConstraint=eastwest;rotatable=0;whiteSpace=wrap;html=1;" vertex="1" parent="Y06S6OtJI9VlS8_aOR3e-85">
          <mxGeometry y="60" width="140" height="30" as="geometry" />
        </mxCell>
        <mxCell id="Y06S6OtJI9VlS8_aOR3e-88" value="PurchasedOn-DateTime" style="text;strokeColor=none;fillColor=none;align=left;verticalAlign=middle;spacingLeft=4;spacingRight=4;overflow=hidden;points=[[0,0.5],[1,0.5]];portConstraint=eastwest;rotatable=0;whiteSpace=wrap;html=1;" vertex="1" parent="Y06S6OtJI9VlS8_aOR3e-85">
          <mxGeometry y="90" width="140" height="30" as="geometry" />
        </mxCell>
        <mxCell id="Y06S6OtJI9VlS8_aOR3e-99" value="TotalAmount-Decimal" style="text;strokeColor=none;fillColor=none;align=left;verticalAlign=middle;spacingLeft=4;spacingRight=4;overflow=hidden;points=[[0,0.5],[1,0.5]];portConstraint=eastwest;rotatable=0;whiteSpace=wrap;html=1;" vertex="1" parent="Y06S6OtJI9VlS8_aOR3e-85">
          <mxGeometry y="120" width="140" height="30" as="geometry" />
        </mxCell>
        <mxCell id="Y06S6OtJI9VlS8_aOR3e-91" value="BILLED ITEMS" style="swimlane;fontStyle=0;childLayout=stackLayout;horizontal=1;startSize=30;horizontalStack=0;resizeParent=1;resizeParentMax=0;resizeLast=0;collapsible=1;marginBottom=0;whiteSpace=wrap;html=1;" vertex="1" parent="1">
          <mxGeometry x="414" y="279" width="140" height="165" as="geometry" />
        </mxCell>
        <mxCell id="Y06S6OtJI9VlS8_aOR3e-92" value="PurchaseId-Int-ForeignKey" style="text;strokeColor=none;fillColor=none;align=left;verticalAlign=middle;spacingLeft=4;spacingRight=4;overflow=hidden;points=[[0,0.5],[1,0.5]];portConstraint=eastwest;rotatable=0;whiteSpace=wrap;html=1;" vertex="1" parent="Y06S6OtJI9VlS8_aOR3e-91">
          <mxGeometry y="30" width="140" height="33" as="geometry" />
        </mxCell>
        <mxCell id="Y06S6OtJI9VlS8_aOR3e-93" value="ItemId-Int-ForeignKey" style="text;strokeColor=none;fillColor=none;align=left;verticalAlign=middle;spacingLeft=4;spacingRight=4;overflow=hidden;points=[[0,0.5],[1,0.5]];portConstraint=eastwest;rotatable=0;whiteSpace=wrap;html=1;" vertex="1" parent="Y06S6OtJI9VlS8_aOR3e-91">
          <mxGeometry y="63" width="140" height="36" as="geometry" />
        </mxCell>
        <mxCell id="Y06S6OtJI9VlS8_aOR3e-94" value="Quantity-Int" style="text;strokeColor=none;fillColor=none;align=left;verticalAlign=middle;spacingLeft=4;spacingRight=4;overflow=hidden;points=[[0,0.5],[1,0.5]];portConstraint=eastwest;rotatable=0;whiteSpace=wrap;html=1;" vertex="1" parent="Y06S6OtJI9VlS8_aOR3e-91">
          <mxGeometry y="99" width="140" height="36" as="geometry" />
        </mxCell>
        <mxCell id="Y06S6OtJI9VlS8_aOR3e-104" value="ItemPrice-Decimal" style="text;strokeColor=none;fillColor=none;align=left;verticalAlign=middle;spacingLeft=4;spacingRight=4;overflow=hidden;points=[[0,0.5],[1,0.5]];portConstraint=eastwest;rotatable=0;whiteSpace=wrap;html=1;" vertex="1" parent="Y06S6OtJI9VlS8_aOR3e-91">
          <mxGeometry y="135" width="140" height="30" as="geometry" />
        </mxCell>
        <mxCell id="Y06S6OtJI9VlS8_aOR3e-110" style="edgeStyle=orthogonalEdgeStyle;rounded=0;orthogonalLoop=1;jettySize=auto;html=1;entryX=1;entryY=0.5;entryDx=0;entryDy=0;" edge="1" parent="1" source="Y06S6OtJI9VlS8_aOR3e-84" target="Y06S6OtJI9VlS8_aOR3e-93">
          <mxGeometry relative="1" as="geometry" />
        </mxCell>
        <mxCell id="Y06S6OtJI9VlS8_aOR3e-111" style="edgeStyle=orthogonalEdgeStyle;rounded=0;orthogonalLoop=1;jettySize=auto;html=1;" edge="1" parent="1" source="Y06S6OtJI9VlS8_aOR3e-86" target="Y06S6OtJI9VlS8_aOR3e-92">
          <mxGeometry relative="1" as="geometry" />
        </mxCell>
        <mxCell id="Y06S6OtJI9VlS8_aOR3e-112" style="edgeStyle=orthogonalEdgeStyle;rounded=0;orthogonalLoop=1;jettySize=auto;html=1;entryX=0;entryY=0.5;entryDx=0;entryDy=0;" edge="1" parent="1" source="Y06S6OtJI9VlS8_aOR3e-66" target="Y06S6OtJI9VlS8_aOR3e-87">
          <mxGeometry relative="1" as="geometry" />
        </mxCell>
      </root>
    </mxGraphModel>
  </diagram>
</mxfile>
